<svg id="Layer_7" data-name="Layer 7" xmlns="http://www.w3.org/2000/svg" viewBox="0 0 871.84 962.55"><defs><style>.cls-1{fill:#69c9ca;}.cls-2{fill:#fff;}.cls-3{fill:#ef486b;}.cls-4{fill:#42b649;}</style></defs><path class="cls-1" d="M520.34,467.45C477.41,363.32,708.91,143.28,790.41,145.08c7,.15,27.87,2.25,53.29-6.21,21.46-7.14,27.57-15.63,48.23-22.58,12.28-4.13,26.79-6.75,56.1-5.4,85.82,3.94,160.84,35.49,182.53,45.05,34.49,15.19,52,23.12,65.8,39.43,20.73,24.51,16.82,45.53,40.88,69.62,22.53,22.55,45.19,30.8,56,36,87.21,42.44,93.06,228.36,93.51,248.53.67,30.35,4.51,204.78-79.62,245.9-20.19,9.87-46.61,12.62-70.79,39.46-23.39,26-13.55,39.89-32.49,68.25-33.61,50.32-114.72,81.53-165.29,70.35-7.81-1.72-25.17-6.73-45.93-1.1-18,4.86-20,12.69-35.11,18.79-32.8,13.27-70.75-4.36-87.56-12.17-27.8-12.91-32.1-24.29-56.55-28.43-18.77-3.18-32.42.78-40.52,2.17-61,10.45-165.24-64-170-138.73-2.79-43.75,29.35-74.8,10.43-98.62-7.74-9.74-15.36-7.37-41.73-27.5-17.26-13.18-25.89-19.77-32.24-31.29-10.07-18.29-8.53-37.11-6.67-59.79,2.17-26.53,6.9-32.18,8.57-49.27C544.87,510,526.67,482.81,520.34,467.45Z" transform="translate(-515.08 -33.46)"/><path class="cls-2" d="M556.91,445.79c-.38,8.1,2.89,20.16,9.42,44.28a122.83,122.83,0,0,0,4,11.64c2.14,5.38,4,10,7.67,15.4a43.08,43.08,0,0,0,7.91,9.25,37.69,37.69,0,0,0,8,5.37c11.33,4.89,38.86-30.07,42.2-34.36,35.67-45.8,50.47-72.87,57.93-70.22,3.51,1.25,3.9,8.55,4,11.59,3.85,89.8-10.1,178.89-10.1,178.89-4.28,26.81-4.71,32.66-6.08,41.1,0,0-.92,5.53-2.08,11.31-13.65,68.22-28.08,104.05-28.08,104.05a106.58,106.58,0,0,0-6,20.13,74,74,0,0,0-1.61,20.29,72.81,72.81,0,0,0,6.45,23C666,870.1,762.09,921.6,782.38,907.13a46.38,46.38,0,0,0,15.46-19.76c1.7-4.72,2.29-9.38,2.15-17.61a156.34,156.34,0,0,0-4.73-35.65c-6.79-25.29-12.74-45-14.17-49.82-5.26-17.78-7.52-32-12-60.57-7.6-48.06-9.33-90.61-11.17-131-5.18-114-3.83-108.22-6.87-145.17,0,0-1-12.63-.86-30.5.24-23.31.47-35.23,6-48.1,4.22-9.81,9.93-15.66,21-27.49,9.13-9.72,11.81-10.57,30.5-27.49,15.4-13.94,23.16-21,26.2-27.06,6.18-12.25,5.44-23.61,4.29-41.23-1-15.53-3.38-15-10.3-51.55-2.6-13.71-3-17.44-4.51-19.77a8.53,8.53,0,0,0-1.08-1.27c-6.14-6.41-29.82-1-63.57,17.18a340.21,340.21,0,0,0-49.82,32.64c-43.69,34.83-70.68,69.51-85.9,89.34a527.17,527.17,0,0,0-40.38,61.64c-7,12.47-10.52,21.13-17.61,38.44C559.66,425.47,557.44,434.4,556.91,445.79Z" transform="translate(-515.08 -33.46)"/><path class="cls-2" d="M769.92,417.48c1-15.67,1.52-23.63,3.65-29.64a78.6,78.6,0,0,1,6.66-13.74,114.3,114.3,0,0,1,14-18.9c2.2-2.53,19.07-18.66,19.81-19.48,1-1.13,1.9-2.06,2.5-2.71,0,0,.35-.36.66-.7a136,136,0,0,1,14.83-13c6.46-4.82,9.75-7.23,12.45-7.2,4.65.06,8.08,3.24,9,4.19,3.35,3.37,4.13,7.58,4.51,10,2.25,14,1.12,28.31.65,36.08-.59,9.7.1,5-.65,20.29-1.5,30.82-5.26,69.25-6.76,84.72-5.49,56.54-6.55,71.95-7.09,80.21-.78,11.9-2.12,32.61-1.93,49.93.13,12.23,1.55,24.65,4.4,49.51.14,1.2,1.45,11.54,4.08,32.21,2.19,17.22,3,23.82,4.51,32.64.44,2.66,1,5.77,1.73,10.72,1,6.78,1.38,10.84,2.56,18.28,3.12,19.52,7.11,32.91,10.74,45.09,0,0,2,6.87,12,27.33a23.41,23.41,0,0,0,8.64,10.26c1.86,1.14,5.74,3.53,10,2.52,6.32-1.47,9-9.18,9.8-11.6.91-2.64,1.06-6.11,1.37-13a100.59,100.59,0,0,0,0-10.69c-.16-2.79-.5-6.53-.65-8.27,0,0-.14-1.75-.32-3.27a319.14,319.14,0,0,0-7.41-40.59c-1-3.89-13.78-52-20.61-89.23-2.76-15-6.34-34.89-7.73-61.21-1.14-21.44.08-41,2.57-79.24,2.28-35,3.6-41.58,5.16-68.94,2.14-37.66,3.31-56.49,1.93-68.29-1.51-12.92-1-26-1.77-39-.63-10.22-1.31-18.89,4-26.9,4-5.93,9.9-9.56,11.91-10.79,1.17-.71,6-3.71,15.47-5.8,9.7-2.15,22.21-4.92,34.79.65,3.27,1.44,7.44,3.35,10.31,7.73,4,6.1,3,13.21,2.57,16.1-3.43,25-3.59,50.33-6.44,75.38-.53,4.68-1.2,13.86-2.58,32.22-.6,8-2.36,32-3.86,59.27-2.14,38.86-3.22,58.5-3.22,81.18a757.42,757.42,0,0,0,8.37,110.81c2.7,18.92,8.48,59.57,20.62,103.73a437.14,437.14,0,0,1,12.24,65.07c1.72,15.38,1.65,22.27,1.29,27.71-.64,9.72-2.43,37-17.4,54.76C947.59,952.17,892.75,954,861.84,931c-20.4-15.21-30-41-35.44-55.41-2.23-6-4.52-14.79-9-32.22-3.76-14.58-8.37-32.42-13.53-56.05-3.27-15-11-50.86-17.39-96-1.35-9.56-4.57-47.52-11-123.06-2.57-30.4-4.4-94.84-5.79-115.32-.06-.83-.25-3.6-.39-7.3A266.08,266.08,0,0,1,769.92,417.48Z" transform="translate(-515.08 -33.46)"/><path class="cls-2" d="M1266.83,549.56" transform="translate(-515.08 -33.46)"/><path class="cls-2" d="M890.35,238.86c-7.11-28.29-7.68-47.08-7.8-52.45-.51-23.93,2.91-29.65,6.83-32.6,2.36-1.77,5.55-2.3,11.92-3.38,12.76-2.16,24.55-.4,32.27.75,1.54.23,3.64.58,7.08,1,5,.65,6.86.74,12.3,1.4,3.14.38,5.39.7,8.1,1.09,0,0,6.6.86,13.32,2.08,26.75,4.86,61.57,13.21,114.89,30.71,17.24,5.65,45.85,15.36,75.38,34.79,9.5,6.24,19.6,13.82,23.2,26.41,1.53,5.35-.68,15.66-5.16,36.08,0,0-3.87,17.68-16.1,45.74a17.75,17.75,0,0,1-4.51,6.45c-5.12,4.5-11.89,4.53-14.82,4.51-4.21,0-14.36-.93-32.86-14.18-16.4-11.75-18.61-18.35-29.64-20-2-.3-11.72-1.72-17.39,3.87-1.91,1.88-2.58,3.78-3.87,7.08-4.84,12.43-5.56,11.54-8.37,19.33-7.57,21-14.18,57.34-14.18,57.34-9.36,51.61-8.74,45-9.66,52.19-3.36,26.46-2.5,48.28-.64,90.84,1.65,37.81,2.47,56.72,6.44,82.47,5.28,34.25,8,52,17.39,74.73,19.1,46.24,52.14,80.16,70.23,94.71,12.47,10,23.26,22.27,36.72,30.92,5.43,3.49,12,7.31,16.75,15.47,6.34,11,5,22.51,4.51,25.77s-2.18,11.55-10.3,21.9c-4.08,5.19-11.87,13.61-40,27.06-12.73,6.1-28.46,11.37-59.92,21.91-13.79,4.62-19.77,6.43-28.34,5.8-2.09-.16-25.63-2.21-34.15-18.69-1.9-3.67-2.45-6.9-2.58-20-.23-23.59,1.35-34.48,1.29-46.39-.05-10.67-2.18-20.79-6.44-40.59-6.73-31.26-14-54.55-15.46-59.27-9.58-31.12-12.19-56.82-17.4-108.24-15-148.23,6.33-304.59,14.17-327.29a33.86,33.86,0,0,0,1.94-14.17c-.08-.93-1.53-17-14.18-25.77-2.39-1.65-8.07-3-19.33-5.64-17.28-4.05-25.92-6.07-33.82-6.62-9.78-.68-11,.41-14.66-1.43C897.34,261.47,894.36,254.85,890.35,238.86Z" transform="translate(-515.08 -33.46)"/><path class="cls-2" d="M597.69,565.66c-19.86,4.66-28.51,22.34-30,25.45-.76,1.63-11.6,26,3.54,46.39,12.13,16.36,31.38,17.32,33.5,17.4,21.81.72,34.9-15.39,36.73-17.72,9.75-12.44,14.42-31.85,5.47-49C637.51,570.12,616.33,561.29,597.69,565.66Z" transform="translate(-515.08 -33.46)"/><path class="cls-2" d="M1179.21,376c-4.21,2.78-9.86,4.26-14.7,5.58" transform="translate(-515.08 -33.46)"/><path class="cls-3" d="M1213.8,380.11c-28,9.51-57,.65-86-6.6a38,38,0,0,0-30.66,6.44c-1.66,1.61-3.31,2.42-5.8,4-6.63,5.64-13.26,11.27-17.4,18.52a62.28,62.28,0,0,0-6.63,16.91c-11.67,48.91-13.26,72.81-13.26,72.81a447.06,447.06,0,0,0,.66,66.36c2.24,30,6.36,50.25,13.43,84.88,2.21,10.88,4.69,22,10.11,35.92A208,208,0,0,0,1092.8,709a262,262,0,0,0,42.71,54.18,94.75,94.75,0,0,0,31.11,18.12,96.72,96.72,0,0,0,35.74,5.34,40.91,40.91,0,0,1,5.8-2.42c5-2.41,8.29-6.44,13.26-8.05,11.6-5.64,24,0,35.63,1.61,8.29.81,16.58,1.61,24-2.42,14.91-8.85,24.86-20.93,34-35.43,26.51-41.07,35.63-86.17,44.75-131.27,9.11-78.12-2.49-157.85-41.44-228.72l-7.46-12.08c-9.11-12.88-17.4-24.16-31.49-32.21-11.6-6.44-23.2-9.67-36.46-8.05-8.29,1.61-16.58,4.83-20.72,12.88l-10.44,15.14a66.6,66.6,0,0,1-12.35,10.87,67.77,67.77,0,0,1-11.83,6.44" transform="translate(-515.08 -33.46)"/><path class="cls-4" d="M1179.82,384.24a73.72,73.72,0,0,0-1.49-14.44c-1.46-7.09-3.55-11.9-5.27-12.85a11.43,11.43,0,0,1-2.57-2.49.68.68,0,0,1-.2-.46c0-.32.33-.54.45-.62.79-.56,1.47-1.25,2.28-1.78a18.12,18.12,0,0,0,2.23-1.57c.59-.51,1.25-.93,1.81-1.47.24-.22.57-.56.93-.5a.91.91,0,0,1,.58.48c1.28,2.09,2.8,4,3.9,6.21,1.31,2.59,1.19,2.11,1.53,2.95,1.26,3.08.8,4.29,1.62,5.08,1.85,1.76,7.58-1.17,9.45-2.16,6.77-3.58,11.82-6.28,16.9-12,17.36-19.51,10.63-47.13,7.38-54.52-.6-1.34-2.6-5.89-3.65-5.63-.79.19-.67,3-.66,3.78,0,7.88-10.87,14.81-17.32,21.26-10.89,10.89-17.2,28.42-14.67,39.06,1.24,5.22,2.32,10.47,3.62,15.68a50.13,50.13,0,0,1,1.19,6.39,46.24,46.24,0,0,1,.3,6.71c0,1.15-.11,2.13-.18,2.87" transform="translate(-515.08 -33.46)"/><path class="cls-2" d="M1267.24,389.77c-9.79-1.45-21.1.74-21.88,4.62-.84,4.19,11.37,6.59,25.55,19,13.09,11.41,19.76,24.24,24.54,33.43a145.37,145.37,0,0,1,11.93,32c7.45,28.29,5,46.35,7.63,46.53,2.91.21,8.35-22.51,8.18-45.51a116,116,0,0,0-4.11-31.14,102.84,102.84,0,0,0-11.54-26.23C1301.9,413.61,1288.76,393,1267.24,389.77Z" transform="translate(-515.08 -33.46)"/><path class="cls-1" d="M796.88,94.83l-4.16-34.16-12.35,4-.25-2.42,27.21-8.93.3,2.4-12.36,4.06L799.38,94Z" transform="translate(-515.08 -33.46)"/><path class="cls-1" d="M831.08,85a13.65,13.65,0,0,1-8.17-.07,10,10,0,0,1-5.26-4.41,16.09,16.09,0,0,1-2.08-7.57l-1.06-21.29,2.55-.65,1.06,21.29a16.39,16.39,0,0,0,.94,5A9.81,9.81,0,0,0,821.44,81a7.56,7.56,0,0,0,3.87,1.92,12.7,12.7,0,0,0,5.47-.35A14.11,14.11,0,0,0,837,79.44a11.52,11.52,0,0,0,3.3-5.27,20.67,20.67,0,0,0,.77-7.17L840,45.18l2.55-.64,1.13,22c.26,4.8-.65,8.79-2.7,12S835.61,83.81,831.08,85Z" transform="translate(-515.08 -33.46)"/><path class="cls-1" d="M862,77.81l.61-34.42-12.8,2.31.08-2.42,28.2-5.09,0,2.42-12.8,2.31-.66,34.42Z" transform="translate(-515.08 -33.46)"/><path class="cls-1" d="M898.94,72.55a19.82,19.82,0,0,1-9.15-.89,12.92,12.92,0,0,1-6.12-4.59,15.56,15.56,0,0,1-2.73-7.54,23.05,23.05,0,0,1,.61-8.43,21.36,21.36,0,0,1,3.54-7.38,19.88,19.88,0,0,1,6.27-5.47,22.39,22.39,0,0,1,8.77-2.68,20,20,0,0,1,9.18.89A13,13,0,0,1,915.46,41a15.6,15.6,0,0,1,2.73,7.55,23.2,23.2,0,0,1-.61,8.42A21.21,21.21,0,0,1,914,64.4a20.2,20.2,0,0,1-6.29,5.48A22.43,22.43,0,0,1,898.94,72.55Zm0-2.44a19,19,0,0,0,7.54-2.33A17.67,17.67,0,0,0,911.91,63a18.66,18.66,0,0,0,3.1-6.51,20.83,20.83,0,0,0,.52-7.5,13.09,13.09,0,0,0-2.29-6.37,10.94,10.94,0,0,0-5.16-3.87,17.32,17.32,0,0,0-7.89-.74,19.13,19.13,0,0,0-7.54,2.34,17.32,17.32,0,0,0-5.43,4.79,18.87,18.87,0,0,0-3.12,6.51,20.18,20.18,0,0,0-.55,7.5,13,13,0,0,0,2.29,6.35A10.76,10.76,0,0,0,891,69.37,17.14,17.14,0,0,0,898.94,70.11Z" transform="translate(-515.08 -33.46)"/><path class="cls-1" d="M937.39,56.86l.43-2.33,13.27-.2-.43,2.33Z" transform="translate(-515.08 -33.46)"/><path class="cls-1" d="M957.38,69.3l8.53-35.84,2.63.09-8,33.49,20.79.76-.6,2.35Z" transform="translate(-515.08 -33.46)"/><path class="cls-1" d="M990.27,68.48l22.18,2.29-.76,2.31L987,70.52l10.9-35.19,24,2.48-.76,2.31-21.36-2.21Zm4.84-16.73,19.46,2-.7,2.26-19.46-2Z" transform="translate(-515.08 -33.46)"/><path class="cls-1" d="M1014.69,73.16l29.81-31.4,2.59.46L1050,79.44l-2.65-.47-2.59-35.53,1.07.19-28.26,30Zm9.76-8.59,1.71-1.95,21.24,3.77.07,2.27Z" transform="translate(-515.08 -33.46)"/><path class="cls-1" d="M1055.79,80.71l16-33.2L1084,50.67q5.81,1.48,8.33,4.83a8.86,8.86,0,0,1,1.34,7.94,14.3,14.3,0,0,1-3.9,7.07,12.75,12.75,0,0,1-6.75,3.25,21.75,21.75,0,0,1-9-.6l-11.6-3,1.65-.8-5.81,12Zm8.26-11.2-.53-1.47,11.15,2.87c4.26,1.09,7.83,1,10.68-.32s4.78-3.84,5.75-7.61a6.89,6.89,0,0,0-1.09-6.25q-2-2.59-6.72-3.8l-11.1-2.86,1.67-.9ZM1080.13,87l-3.88-14.54,2.8.72,3.88,14.54Z" transform="translate(-515.08 -33.46)"/><path class="cls-1" d="M1091.06,90l18.63-31.78,2,.71,7.13,37.36-.77-.48L1135,66.92l2.49.86-18.64,31.79-2.1-.73-7.07-37.34.76.48-16.91,28.83Z" transform="translate(-515.08 -33.46)"/></svg>